<svg width="236" height="66" viewBox="0 0 236 66" fill="none" xmlns="http://www.w3.org/2000/svg">
<path d="M162.8 65.7001L162.5 65.8H162.2L162 65.7001L161.8 65.5001L161.7 65.3L161.8 65.1001L162 64.9001L162.3 64.6001L162.6 64.5001L162.8 64.4001H163L163.2 64.6001L163.3 64.8L163.4 65.0001L163.3 65.3L163 65.6001L162.8 65.7001ZM227.8 51.8L227.6 51.9001L227.3 52.1001L227 52.3L226.8 52.5001L226.5 52.8L226.3 53.0001L226 53.2001L225.6 53.5001L225.2 53.6001L224.6 53.8H224.2L223.9 53.9001L223.6 54.0001L223.1 54.1001H222.7L222.4 54.2001L221.9 54.1001H221.7L221.5 54.0001V53.9001L221.4 53.7001L221.3 53.5001L221.2 53.2001L221.3 52.9001L221.4 52.7001L221.6 52.6001L221.9 52.4001L222.2 52.3L222.4 52.2001L222.7 52.1001L222.9 52.0001H223.2H223.3L223.6 51.9001H224L224.3 51.8L225.1 51.6001L225.6 51.4001L226.3 51.2001L226.7 51.0001L227.1 50.9001L227.6 50.8H227.8H228H228.3L228.4 50.9001H228.5H228.6L228.7 51.0001V51.1001V51.2001L228.6 51.3H228.5L228.3 51.4001L228.2 51.5001L228 51.6001L227.8 51.8ZM224.2 52.3L224 52.4001H223.7H223.2H222.9L222.6 52.5001L222.3 52.7001L221.8 52.9001L221.6 53.1001V53.3L221.7 53.5001L221.8 53.8L222.4 54.0001H222.7L223 53.9001L224 53.8L224.4 53.6001L224.7 53.5001L225.1 53.4001L225.5 53.3L226.1 52.9001L226.4 52.6001L226.6 52.4001L226.7 52.2001L226.6 52.0001L226.4 51.9001H226L225.7 52.0001L225.3 52.1001L224.6 52.2001L224.2 52.3ZM189.8 52.8H189.3L188.7 52.7001L188.4 52.6001L188.2 52.3L188.1 52.1001L188.2 51.8L188.5 51.4001L188.9 51.1001L189.4 50.8L189.7 50.7001H190.3H190.6L191 50.8L191.3 50.9001L191.6 51.1001L191.7 51.4001V51.6001L191.6 51.8L191.3 52.0001L190.9 52.4001L190.3 52.7001L189.8 52.8ZM5.39999 44.5001L5.60001 44.7001L5.70001 44.9001L5.89999 45.0001L6 45.1001H6.20001H6.39999L6.5 45.2001H6.70001L6.79999 45.3L6.89999 45.4001H7H7.10001L7.20001 45.3H7.39999L7.5 45.2001H7.70001V45.1001L7.79999 45.0001L7.89999 44.9001H8L8.10001 44.8L8.20001 44.7001L8.29999 44.6001V44.4001L8.39999 44.3H8.5L8.60001 44.2001H8.70001L8.79999 44.3L8.89999 44.4001L9.10001 44.5001H9.20001L9.39999 44.6001H9.5V44.7001H9.60001L9.70001 45.0001L9.79999 45.1001H9.89999V45.2001H10H10.2H10.4H10.5L10.7 45.3H10.8H10.9H11L11.2 45.4001L11.5 45.6001L11.8 45.8L11.9 45.9001H12L12.1 45.8L12.2 45.7001H12.3H12.4H12.5H12.7H12.9H13H13.2H13.3L13.5 45.8H13.6L13.7 45.7001L13.8 45.6001L13.9 45.5001H14H14.2L14.3 45.6001L14.5 45.7001H14.6L14.7 45.8H14.9L15 45.7001H15.2L15.3 45.6001L15.5 45.4001L15.7 45.3L16 45.0001L16.1 44.9001L16.3 44.8L16.5 44.7001L16.7 44.6001H16.8L17.2 44.7001H17.3H17.4L17.7 44.6001L18 44.5001L18.3 44.4001H18.5V44.6001H18.4L18.5 44.7001V44.8H18.4L18.3 44.9001H18.1H18H17.8H17.7L17.6 45.0001V45.1001H17.5L17.4 45.2001H17.2H17.1H17L16.9 45.3H16.8L16.7 45.4001H16.6V45.5001L16.5 45.6001V45.7001V45.9001V46.1001V46.3V46.4001V46.6001V46.7001V46.8H16.4H16.3L16.2 46.7001V46.6001H16.1H16H15.9L15.8 46.7001V46.8L15.7 46.9001V47.0001V47.2001V47.3V47.4001H15.8L15.9 47.5001H15.8V47.6001L15.7 47.7001L15.6 47.8H15.5L15.4 47.7001H15.3H15.2L15.1 47.8V47.9001V48.0001V48.1001V48.2001V48.4001V48.6001L15.2 48.7001H15.3H15.4L15.5 48.8H15.6V48.9001L15.5 49.0001V49.1001V49.2001L15.7 49.5001L16.1 49.9001L16.3 50.1001L16.6 50.3L16.8 50.4001L16.9 50.5001L17 50.6001L17.3 50.7001L17.6 50.8L17.9 50.9001L18.1 51.0001H18.3L18.5 51.1001L18.7 51.0001H18.8H18.9L19.1 50.9001L19.2 50.7001V50.6001H19.3L19.4 50.4001V50.3H19.5H19.6L19.7 50.4001L19.8 50.5001L19.9 50.6001V50.9001V51.1001V51.4001V51.8L19.8 52.0001L19.9 52.1001V52.2001H20H20.1L20.2 52.3L20.3 52.5001V52.6001L20.4 52.8V52.9001V53.0001L20.3 53.1001L20.1 53.2001H20H19.9L19.8 53.3L19.7 53.4001L19.6 53.5001V53.6001H19.5L19.3 53.7001V53.8L19.2 53.9001L19.1 54.1001L19 54.2001H19.1H19.2L19.4 54.1001H19.5V54.0001V53.9001L19.6 53.8L19.7 53.7001L19.8 53.5001H19.9H20H20.1H20.2H20.3H20.4H20.5H20.6V53.4001V53.3V53.2001V53.0001L20.5 52.8V52.6001L20.4 52.4001L20.3 52.2001L20.2 52.0001V51.8V51.5001L20.1 51.2001V51.0001V50.7001V50.5001V50.3L20 50.2001V50.1001H19.9V50.0001V49.9001L20 49.8H20.1L20.3 49.9001L20.4 50.0001L20.3 50.1001H20.2V50.2001L20.3 50.3H20.4L20.5 50.2001L20.6 50.1001L20.7 50.0001L20.8 49.8V49.7001V49.5001L20.7 49.3V49.2001H20.6L20.5 49.1001L20.3 49.0001L20.1 48.9001H20H19.9H19.8H19.7H19.6V49.0001L19.5 48.9001L19.4 48.7001V48.6001V48.5001H19.5H19.6H19.7V48.4001V48.3L19.8 48.2001H19.9L20 48.1001L20.1 48.0001V47.9001V47.8V47.7001L20.2 47.6001L20.3 47.5001L20.4 47.4001L20.5 47.3H20.6L20.7 47.2001L20.9 47.1001L21 47.0001H21.1L21.2 47.1001H21.4L21.5 47.2001H21.6L21.7 47.4001V47.5001L21.9 47.7001L22 47.8L22.1 48.0001L22.2 48.1001H22.3H22.4L22.6 47.9001H22.7H22.8H22.9L23.1 48.0001L23.2 48.2001L23.4 48.4001L23.5 48.5001H23.6L23.8 48.6001H23.9L24 48.5001V48.3V48.2001L24.1 48.0001V47.9001V47.7001L24.2 47.6001H24.3H24.4L24.5 47.7001H24.6L24.7 47.9001L24.9 48.2001L25 48.4001L25.1 48.5001L25.2 48.6001L25.3 48.7001L25.4 48.8V48.9001H25.3H25.2H25L24.9 49.0001H24.7H24.6H24.4V49.1001H24.2L24.1 49.2001L24 49.3V49.4001V49.5001V49.7001V49.8V49.9001H23.9H23.8V50.0001L23.7 49.9001H23.6V49.8L23.5 49.6001V49.5001H23.4H23.3H23.1H22.9L22.8 49.6001L22.7 49.7001L22.6 49.8V49.9001H22.4H22.2H22.1H22H21.9V49.8L21.8 49.7001V49.6001H21.7H21.6L21.4 49.7001L21.3 49.8L21.2 50.0001L21.1 50.2001V50.4001L21 50.7001L20.9 51.2001L21 51.7001L21.2 52.4001L21.4 52.9001L21.8 53.8L22.3 54.8L22.7 55.7001L23 56.2001L22.9 56.3H22.8L22.5 56.4001H22.3L22.2 56.5001V56.6001L22.1 56.5001L22 56.4001L21.9 56.3H21.7L21.6 56.2001L21.5 55.9001L21.4 55.8H21.3H21.2H21L20.8 55.9001L20.7 56.1001L20.6 56.2001L20.4 56.3L20.3 56.6001H20.2L20.1 56.7001H20H19.9L19.8 56.8V57.0001V57.1001L19.3 57.4001L19.1 57.2001L19 57.0001V56.8V56.7001V56.5001V56.4001H18.9V56.3L18.7 56.4001H18.4L18.1 56.3H18L17.9 56.4001V56.7001V57.0001V57.2001L17.7 57.5001L17.6 57.6001L17.4 57.5001H17.3L17.1 57.2001L17 57.0001L16.7 56.9001L16.5 56.8V56.9001L16.4 57.2001L16.3 57.5001V57.7001L16.4 57.8L16.1 57.9001L15.9 58.0001L15.6 57.9001L15.4 57.8L15 57.5001L14.6 57.3L14.5 57.2001H14.3L14.2 57.3L13.6 57.7001L13.4 57.8V58.0001L13.3 58.1001L13.1 58.2001H12.8H12.6L12.3 58.1001L12.1 58.0001L12 57.8H11.9H11.4H11.1H10.9L10.6 57.9001L10.2 58.0001L10 58.1001L9.70001 58.3L9.39999 58.4001L9.10001 58.5001H8.70001H8.39999L8.10001 58.3L7.89999 58.2001L7.60001 57.9001L7.29999 57.6001L7 57.3L6.79999 57.1001V56.9001L7 56.7001L7.10001 56.5001V56.3V56.2001L7.5 55.9001L7.89999 55.5001L8.10001 55.3L8.20001 55.2001L8.29999 55.1001V54.9001L8.39999 54.5001V54.2001V54.1001L8.29999 54.0001L8.10001 53.9001L8 53.8L7.89999 53.6001L7.70001 53.4001L7.5 53.1001L7.29999 52.9001L7.20001 52.8V52.6001V52.2001L7.29999 51.9001L7.39999 51.5001V51.4001H7.29999L7.20001 51.5001H6.89999L6.5 51.7001L5.89999 52.0001L5.39999 52.3L5 52.5001L4.5 52.9001H4.39999L4.20001 52.7001L4.10001 52.5001L3.89999 52.4001L3.70001 52.3L3.39999 52.2001L3.20001 52.0001L3 51.9001L2.79999 51.7001L2.70001 51.6001H2.60001H2.39999H2.20001L1.89999 51.7001H1.70001H1.5H1.39999L1.29999 51.9001H1.20001L1.10001 52.0001H1L0.799988 51.9001L0.5 51.8L0.600006 51.6001V51.5001L0.700012 51.4001L0.799988 51.2001V51.1001V51.0001L0.700012 50.9001V50.8V50.7001V50.6001L0.799988 50.5001L0.899994 50.4001V50.3L1 50.2001L1.10001 50.1001L1.20001 49.9001L1.29999 49.8L1.5 49.7001L1.70001 49.5001L1.89999 49.4001L2.10001 49.2001L2.20001 49.1001L2.29999 49.0001V48.9001V48.8V48.6001V48.5001L2.39999 48.4001L2.5 48.1001V48.0001V47.9001H2.39999V47.8V47.6001V47.5001L2.5 47.3V47.1001H2.60001L2.70001 47.0001H2.79999H2.89999L3.10001 46.9001H3.20001V46.8L3.29999 46.7001V46.6001V46.4001V46.3L3.20001 46.2001V46.1001L3.10001 45.9001L3 45.8H2.89999V45.7001V45.6001L3.10001 45.5001H3.29999V45.4001H3.39999L3.29999 45.3V45.2001L3.20001 45.1001L3.29999 45.0001H3.39999L3.60001 44.9001H3.70001H3.79999L3.89999 44.8V44.7001V44.6001H4H4.10001H4.20001H4.29999L4.39999 44.5001L4.5 44.4001L4.60001 44.3V44.2001H4.70001H4.79999L4.89999 44.1001H5L5.10001 44.2001L5.20001 44.4001L5.39999 44.5001ZM19.1 44.4001H19H18.9L18.8 44.3H18.7V44.2001V44.1001V43.9001L18.8 43.7001L18.9 43.6001H19H19.1L19.2 43.7001V43.8L19.3 43.9001V44.0001L19.2 44.1001L19.1 44.3V44.4001ZM185.9 43.6001H185.7L185.6 43.5001L185.3 43.4001L185.2 43.3L185.1 43.1001V42.9001L185.2 42.8H185.3L185.6 42.6001H185.7H186L186.2 42.7001L186.3 42.8V43.0001V43.1001L186.2 43.3L186.1 43.5001L185.9 43.6001ZM190.2 40.7001L190.7 41.3L190.9 41.7001L191 42.0001L190.9 42.5001L190.7 42.9001L190.2 43.4001L189.5 43.8L188.8 44.2001H188.4H187.9H187.6L187 43.9001L186.9 43.8V43.4001L187 43.3L187.3 43.2001L187.7 43.3L187.9 43.4001H188.2L188.5 43.3L188.7 43.2001L189.3 42.7001L189.4 42.6001L189.5 42.3V42.1001L189.3 41.8L189 41.5001L188.6 41.4001L187.9 41.2001L186.9 41.1001H186.1L185.2 41.2001H184.3L183.8 41.3L183.5 41.5001L182.9 42.1001L182.3 42.7001L181.8 43.2001L181.3 43.7001L180.8 44.1001L180.3 44.6001L180.2 44.7001H180.3L180.5 44.9001L181.3 44.7001L182.4 44.1001L183.4 43.3L184.2 43.2001H184.3L184.4 43.3V43.6001L184.3 43.7001V43.8L183.4 44.4001L183 44.7001L182.2 45.2001L181.7 45.5001L181.2 45.7001L180.6 45.8H180L179.5 45.5001L179.3 45.4001L179.2 45.1001L179.1 44.9001V44.6001L179.2 44.2001L179.4 44.0001L180 43.4001L180.7 43.0001L181.5 42.3L181.9 41.9001L182.5 41.3L182.9 40.9001L183.4 40.7001L183.8 40.5001H185L186 40.4001L186.7 40.3H187.4H188.2L188.6 40.2001L189.2 40.1001L189.5 40.2001L189.8 40.3L190.2 40.7001ZM203.9 38.0001V38.1001L203.8 38.2001V38.3L203.7 38.4001H203.5H203.4L203.3 38.5001H203.2H203.1H203L202.8 38.4001H202.7L202.5 38.3H202.4H202.2L202.1 38.2001H202H201.9L201.7 38.1001H201.6H201.5H201.3H201.2H201.1H201H200.9H200.8L200.7 38.2001H200.6L200.5 38.3L200.4 38.4001H200.3L200.1 38.5001L200 38.6001L199.9 38.7001H199.8L198.8 39.0001L198.3 39.1001H197.9L197.7 39.0001L197.5 38.8V38.5001V38.2001L197.7 37.9001L197.9 37.8L198.5 37.4001L198.8 37.3L199.1 37.2001L199.8 37.0001H200.1L200.5 36.9001L200.8 36.8H201.1H201.4H201.7L201.9 36.9001H202.1L202.4 37.0001L202.6 37.1001H202.8L203 37.2001L203.3 37.3L203.5 37.4001L203.6 37.5001L203.7 37.6001L203.8 37.7001L203.9 37.8V37.9001V38.0001ZM186.5 32.9001H186.4H186.3H186.2H186L185.9 32.7001L185.8 32.5001V32.3L185.9 32.2001L186.2 32.1001H186.4L186.6 32.2001L186.7 32.3L186.8 32.4001V32.5001V32.6001L186.7 32.7001V32.8L186.6 32.9001H186.5ZM178.1 33.2001L177.8 33.3H177.6L177.3 33.1001L177.2 32.9001L177.1 32.8L177.2 32.6001L177.4 32.5001L177.5 32.3L177.7 32.2001L178.1 32.1001L178.4 32.0001L178.6 32.1001H178.8L178.9 32.2001L179 32.3V32.5001L178.9 32.7001V32.8L178.8 32.9001L178.6 33.0001L178.4 33.1001L178.1 33.2001ZM181.6 33.3H181.5H181.4H181.1L180.8 33.1001L180.5 32.8L180.2 32.2001L180.1 31.8V31.6001L180.2 31.3L180.3 31.1001L180.6 30.8H180.7H180.8L181 31.0001L181.4 31.4001L181.7 32.0001L181.9 32.4001L182 32.6001V32.8L181.9 33.1001L181.8 33.2001L181.6 33.3ZM181 30.0001H180.8H180.5L180.3 29.9001L180.4 29.7001L180.5 29.6001L180.6 29.5001H180.8H180.9L181 29.6001L181.1 29.7001V29.8L181 29.9001V30.0001ZM188 33.0001L187.8 33.1001H187.7H187.6V33.0001L187.5 32.9001V32.8V32.5001L187.7 32.1001L188 31.5001L188.2 31.1001L188.4 30.7001L188.5 30.4001V30.3V30.0001V29.8L188.2 29.4001L188 29.1001V29.0001L188.1 28.8L188.3 28.7001H188.4H188.6L188.7 28.8L189 29.0001L189.2 29.2001L189.3 29.4001L189.5 29.7001L189.6 29.8V30.1001L189.5 30.4001L189.4 30.7001L188.9 31.1001L188.6 31.5001L188.5 31.8L188.4 32.2001L188.2 32.6001L188.1 32.9001L188 33.0001ZM182.3 29.3H181.8L181.5 29.2001L181.3 29.1001L181.2 28.9001V28.8L181.3 28.6001L181.5 28.4001L181.8 28.1001L182.2 28.0001L182.4 27.9001L182.6 28.0001H182.8L182.9 28.2001V28.6001V28.7001L182.8 28.9001L182.6 29.1001L182.3 29.3ZM185.9 28.1001H185.8H185.7L185.6 28.0001L185.5 27.9001L185.4 27.7001V27.6001V27.4001L185.5 27.3L185.6 27.1001L185.8 27.3L185.9 27.6001L186 27.9001V28.0001L185.9 28.1001ZM184.5 28.1001H184.1H183.9H183.8L183.6 28.0001L183.4 27.8L183.2 27.7001V27.5001V27.3V27.2001L183.3 27.1001H183.5L183.6 27.0001L183.8 26.9001H184.1H184.3H184.6L184.7 27.0001L184.9 27.1001L185 27.3V27.6001L184.9 27.7001V27.9001L184.7 28.0001L184.5 28.1001ZM230.6 26.9001L230.5 27.0001H230.4L230.3 26.9001V26.8V26.7001L230.4 26.6001H230.5H230.6L230.7 26.7001H230.8V26.8L230.7 26.9001H230.6ZM187.7 28.4001L187.5 28.5001L187.3 28.4001H187L186.7 28.3L186.5 28.0001L186.3 27.8L186.2 27.3L186.1 26.8L186 26.6001V26.4001L186.1 26.2001L186.2 26.1001H186.6H186.7L187 26.3L187.2 26.6001L187.5 27.3L187.7 27.8V28.2001V28.3V28.4001ZM235.5 22.6001H235.4H235.3L235.2 22.5001L235 22.4001L234.9 22.3L234.7 22.2001L234.6 22.1001V22.0001V21.9001V21.8V21.7001H234.7H234.8H234.9H235L235.1 21.9001H235.2L235.3 22.0001L235.4 22.1001L235.5 22.2001L235.6 22.3V22.4001V22.5001H235.5V22.6001ZM171 20.1001H170.6H170.5L170.1 20.0001L169.9 19.9001L169.7 19.6001V19.4001V19.2001L169.8 18.9001L169.9 18.8L170 18.5001L170.2 18.4001L170.6 18.3H170.8L171.4 18.4001V18.5001L171.7 18.8V19.4001V19.6001L171.6 19.9001L171.3 20.1001H171ZM216.6 13.7001V13.8V13.9001L216.5 14.0001L216.4 14.1001L216.3 14.2001L216.2 14.3H216.1H216H215.9H215.8V14.2001H215.9V14.1001H215.8V14.0001H215.7L215.6 13.9001V13.8V13.7001L215.5 13.8H215.4V13.7001L215.5 13.6001V13.5001H215.6V13.4001L215.7 13.3H215.8L215.9 13.2001H216.1H216.2H216.3H216.5H216.6V13.3L216.7 13.4001H216.8L216.9 13.5001H216.8V13.6001H216.7V13.7001H216.6ZM215.7 7.90005L215.8 8.00006L216 8.20007L216.2 8.30005L216.3 8.50006L216.4 8.70007L216.5 8.80005L216.6 9.00006V9.20007V9.40005V9.60007V9.70007H216.5H216.4H216.3V9.60007V9.50006L216.4 9.40005L216.3 9.30005V9.20007L216.2 9.10007L216.1 9.00006V8.90005L216 8.80005L215.9 8.70007L215.8 8.50006L215.7 8.40005L215.6 8.30005V8.20007L215.5 8.10007V8.00006H215.4H215.3L215.1 7.80005H215L214.9 7.70007L214.7 7.60007H214.6L214.5 7.50006H214.4L214.3 7.40005V7.30005L214.4 7.20007H214.5L214.7 7.30005L214.8 7.40005L214.9 7.50006H215.1L215.2 7.60007L215.4 7.70007L215.5 7.80005L215.7 7.90005ZM213.7 6.90005L213.6 7.10007H213.5H213.2L213 7.00006L212.9 7.10007L212.7 7.00006L212.6 7.10007H212.5H212.3H212.2H212H211.9H211.8V7.20007H211.7L211.6 7.10007H211.5V7.20007H211.4H211.1L210.9 7.30005L210.6 7.40005L210.2 7.50006H210H209.8L209.6 7.30005L209.4 7.20007L209.3 7.00006L209.4 6.70007L209.5 6.60007L209.8 6.30005L210.3 6.10007L210.6 5.90005L211.2 5.80005L211.5 5.70007L211.8 5.80005L212.1 6.00006L212.4 6.10007L212.8 6.20007L213.1 6.40005L213.5 6.60007L213.7 6.70007L213.8 6.80005L213.7 6.90005ZM179.2 1.00006V1.10007L179.1 1.30005L179 1.40005L178.5 1.70007L177.4 2.20007L175.9 2.70007H175.4H175.2H174.6H174.4L174.1 2.60007L173.7 2.20007L173.6 2.10007V1.80005L173.7 1.60007L174 1.40005L174.5 1.10007L175.3 0.900055L175.7 0.700073L176 0.600067L176.4 0.500061L176.8 0.400055L177.6 0.300049H178L178.5 0.500061L178.9 0.600067L179.1 0.800049L179.2 1.00006ZM174.9 1.90005H175.5H175.9H176.2L176.5 1.80005L176.7 1.50006L176.8 1.40005L176.7 1.30005L176.6 1.20007L176.4 1.10007H176.1L175.8 1.20007L175.4 1.30005L174.9 1.50006L174.7 1.60007V1.70007V1.80005L174.8 1.90005H174.9Z" fill="#404588"/>
</svg>
