<svg width="59" height="49" viewBox="0 0 59 49" fill="none" xmlns="http://www.w3.org/2000/svg">
<path d="M35.3999 0.800049H35.4999L36.1999 0.900051L36.2999 1.00005H36.4999L36.5999 1.20005L36.7999 1.30005L37.7999 1.60005H37.8999H37.9999V1.50005L38.0999 1.40005H38.1999L38.2999 1.50005L38.3999 1.60005L38.5999 1.90005L38.6999 2.00005L38.9999 2.20005H39.0999H39.1999H39.2999H39.3999L39.6999 2.10005H39.8999L40.1999 2.20005H40.4999L40.6999 2.30005L40.7999 2.40005V2.50005V2.60005L41.0999 3.50005V3.80005V4.00005L40.9999 4.10005L40.8999 4.20005L40.6999 4.40005V4.60005L40.7999 4.90005V5.10005V5.20005L40.8999 5.30005L41.0999 5.40005L41.1999 5.50005H41.3999L41.4999 5.60005V5.70005V5.80005L41.5999 5.90005V6.00005H41.6999H41.7999L41.8999 5.90005H41.9999H42.1999L42.2999 6.00005H42.3999V6.10005V6.20005V6.30005V6.40005V6.50005L42.4999 6.60005L42.5999 6.70005L43.2999 6.90005H43.3999H43.4999V6.80005V6.70005V6.60005H43.5999H43.6999H43.7999H44.0999H44.1999H44.2999L44.3999 6.70005H44.4999L45.0999 6.60005L45.2999 6.30005L45.3999 6.20005V6.10005H45.2999V6.00005V5.90005L45.3999 6.00005H45.4999L45.5999 6.10005L45.7999 6.20005L45.8999 6.30005H45.9999L46.2999 6.20005H46.3999H46.4999V6.10005L46.6999 6.00005H46.7999V6.10005V6.20005L46.8999 6.50005L47.0999 7.20005V7.30005V7.40005H47.1999V7.50005L47.2999 7.60005L47.3999 7.90005L47.4999 8.00005V8.10005V8.20005L47.3999 8.30005V8.40005H47.2999V8.80005V9.00005L47.3999 9.10005L47.4999 9.50005L47.5999 9.70005V9.80005V10V10.2V10.3001L47.9999 11.2L48.0999 11.3001L48.2999 11.5L48.3999 11.6H48.5999H48.6999H48.7999H48.9999L49.0999 11.7L49.1999 11.8001L49.3999 12L50.0999 12.2H50.2999H50.4999L50.5999 12.1L50.6999 12.2L50.9999 12.3001L51.0999 12.4001L51.1999 12.5V12.6V12.8001V13L51.2999 13.2L51.3999 13.4001H51.5999L52.1999 13.7H52.2999H52.3999L52.4999 13.6V13.5L52.5999 13.3001L52.6999 13.2L52.7999 13.1L53.0999 13H53.2999L53.4999 12.9001H53.5999H53.7999L53.8999 13V13.2L53.7999 13.5V13.6L53.6999 14.2V14.3001H53.7999V14.4001V14.5L53.6999 14.6L53.5999 14.9001L53.4999 15V15.1H53.5999V15.2L53.6999 15.3001L53.5999 15.4001V15.5H53.6999H53.7999L53.8999 15.6L53.9999 15.7V15.8001V15.9001L53.8999 16L53.7999 16.3001L53.6999 16.4001V16.5V16.6V16.7L53.7999 16.8001V17V17.1V17.2L53.6999 17.5L53.5999 17.6L53.4999 17.7V17.9001L53.3999 18V18.1V18.2V18.3001V18.4001H53.4999V18.5V18.6L53.8999 18.7L53.9999 18.6L54.0999 18.5L54.1999 18.4001H54.2999L54.4999 18.3001H54.8999V18.4001V18.5V18.6V18.7V18.8001H54.9999V18.9001H55.0999L54.9999 19.3001L54.8999 19.5V19.6L54.6999 19.7V19.8001V20.1V20.2L54.8999 20.4001H54.9999H55.0999L55.1999 20.5H55.2999H55.4999H55.5999H55.6999H55.7999L55.8999 20.8001L55.9999 20.9001V21.2V21.5L56.0999 21.6V21.8001L56.1999 21.9001L56.3999 22L56.4999 22.1L56.5999 22.2H56.7999L56.8999 22.3001V22.5L56.9999 22.7L57.0999 22.8001L57.2999 23.1L57.3999 23.2L57.6999 23.6H57.7999H57.8999H57.9999H58.1999V23.7H58.2999V23.8001L58.3999 23.9001V24H58.4999V24.1H58.5999L58.6999 24.2L58.7999 24.3001V24.4001L58.6999 24.5H58.5999L58.3999 24.6L58.2999 24.7H58.1999V24.8001L58.0999 24.9001V25.1L57.9999 25.2V25.3001L57.8999 25.6L57.7999 25.7H57.6999V25.8001L57.4999 25.9001V26V26.1V26.2L57.6999 26.3001L57.7999 26.4001L57.8999 26.5L57.7999 26.6V26.7L57.6999 26.8001L57.5999 26.9001L57.4999 27L57.5999 27.1V27.2H57.4999L57.3999 27.3001V27.4001H57.2999V27.5H57.1999L56.9999 27.6H56.8999H56.7999H56.6999V27.7V27.8001L56.9999 27.9001H57.0999H57.1999L57.2999 28L57.3999 28.1L57.4999 28.2L57.5999 28.3001H57.6999L57.9999 28.8001L58.0999 28.9001L58.1999 29.1L58.2999 29.3001V29.4001V29.5V29.6H58.1999V29.7L58.0999 29.8001L58.1999 29.9001L58.2999 30H58.4999H58.5999V30.1L58.6999 30.3001V30.6L58.7999 30.7L58.6999 30.9001H58.5999H58.3999H58.2999H58.0999H57.8999H57.7999L57.3999 30.8001H57.2999L57.1999 30.7L56.9999 30.5H56.8999V30.6L56.7999 30.7H56.6999H56.5999L56.4999 30.6L56.1999 30.5H56.0999L55.8999 30.2L55.7999 30.1L55.5999 30H55.4999L55.3999 30.2H55.2999H55.1999H55.0999H54.9999V30.3001L54.8999 30.4001L54.9999 30.5L54.8999 30.6H54.7999H54.5999H54.1999H54.0999H53.9999V30.7L54.0999 30.8001V30.9001L53.9999 31H53.8999H53.7999L53.5999 31.1L53.4999 31.2L53.1999 31.3001H53.0999V31.4001L53.2999 31.6V31.7V31.9001L53.0999 32H52.9999L52.8999 32.1H52.7999L52.6999 32.2L52.4999 32.3001H52.3999V32.4001H52.2999V32.3001H52.1999L52.0999 32.2L51.9999 32L51.7999 31.9001V32H51.6999V32.1H51.5999L51.4999 32.2H51.3999L51.2999 32.3001L51.0999 32.4001V32.5L50.9999 32.6V32.7L50.7999 32.9001H50.6999H50.5999L50.1999 33L50.0999 33.1L49.8999 33.2L49.5999 33.4001L49.4999 33.6L49.3999 33.7V33.8001L49.4999 34V34.4001V34.5H49.2999H48.9999H48.7999L48.6999 34.4001L48.8999 34.7V34.8001V35V35.3001L48.9999 35.6V35.7L49.0999 36V36.1V36.2V36.3001V36.6V36.7V36.8001L48.7999 37L48.4999 37.1H48.2999H48.0999H47.9999L47.8999 37.2L47.7999 37.4001H47.6999V37.5V37.8001L47.7999 37.9001L47.9999 38L48.0999 38.1L48.1999 38.2L48.2999 38.4001L48.3999 38.6L48.4999 38.8001V38.9001H48.3999V39.5L48.5999 39.9001V40.2L48.7999 40.5L48.8999 40.7L48.9999 40.8001V40.9001V41L49.0999 41.3001V41.5L49.3999 41.9001L49.7999 42.5V42.9001V43V43.2L49.4999 43.4001V43.6L49.5999 43.7V43.8001V44V44.1V44.2L49.4999 44.3001L49.3999 44.4001H49.2999V44.6L49.0999 44.9001L48.9999 45.2H48.7999H48.6999H48.5999L48.4999 45.3001L48.3999 45.4001V45.6V45.7L48.4999 45.9001V46.1V46.2L48.5999 46.3001L48.9999 46.6L49.0999 46.9001L49.1999 47.1L49.2999 47.2V47.3001L49.1999 47.4001L49.0999 47.5V47.6L48.7999 47.7H48.5999H48.4999H48.3999L48.2999 47.6L48.0999 47.5L47.9999 47.4001L47.7999 47.2V47.1L47.6999 47L47.5999 46.8001V46.7L47.4999 46.6H47.3999H47.0999V46.8001V47V47.2H46.9999H46.7999H46.6999H46.5999V47.3001L46.6999 47.4001V47.5L46.7999 47.7V47.8001V47.9001H46.6999L46.4999 48H46.1999L45.8999 47.9001H45.6999H45.4999H45.2999L45.0999 48.1L44.9999 48.2L44.7999 48.3001H44.6999H44.5999L44.4999 48.2L44.1999 48L44.0999 48.1L43.9999 48.2L43.7999 48.3001L43.6999 48.4001L43.4999 48.5H43.3999L42.9999 48.3001V48.1V47.8001V47.6V47.5H42.8999H42.6999H42.5999L42.4999 47.4001H42.3999V47.2L42.0999 47.3001L41.9999 47.2V47V46.8001L41.8999 46.7H41.9999L42.0999 46.6L41.9999 46.5H41.8999L41.7999 46.4001V46.3001L41.6999 46.2L41.5999 46.1L41.4999 46L41.3999 45.9001V45.7L41.2999 45.5V45.3001V45L41.3999 44.9001V44.8001V44.6L41.2999 44.5L40.9999 44.7L40.8999 44.8001H40.5999H40.1999H40.0999L39.9999 44.6H39.8999L39.6999 44.7L39.5999 44.8001H39.4999H39.2999H39.1999V45.1H39.0999V45.3001L39.1999 45.6L39.0999 45.7V45.8001L38.9999 45.9001L38.8999 46H38.6999L38.4999 46.1L38.3999 46H38.2999L38.0999 45.9001H37.9999L37.8999 45.8001H37.7999L37.5999 45.7L37.3999 45.6L37.2999 45.7H37.1999H37.0999L36.7999 45.5L36.5999 45.3001H36.4999L36.3999 45.2L36.2999 45.1H36.1999H36.0999L35.9999 45L35.8999 44.9001L35.7999 44.8001H35.6999L35.5999 44.7L35.4999 44.6L35.3999 44.5V44.4001L35.2999 44.2L35.1999 44.1L34.8999 43.9001H34.7999L34.5999 43.8001L34.3999 43.7L34.1999 43.8001L34.0999 43.9001V44L33.9999 44.1V44.2V44.4001H33.8999L33.6999 44.3001H33.4999H33.3999L33.1999 44.4001H32.9999H32.7999H32.6999H32.5999L32.3999 44.2H32.0999L31.9999 44.1L31.6999 44.2H31.5999H31.4999L31.2999 44.4001L31.1999 44.5V44.6L31.0999 44.8001L30.9999 44.9001L30.8999 45.1L30.7999 45.3001V45.4001V45.5H30.6999V45.6L30.5999 45.7L30.4999 45.8001L30.3999 46L30.2999 46.1H30.1999H30.0999H29.9999L29.8999 46.2L29.4999 46.5L29.3999 46.6V46.7L29.2999 46.8001V46.9001L29.1999 47.1L28.9999 47.2H28.7999H28.5999H28.4999L28.0999 47.1H27.9999L27.7999 47H27.5999H27.3999L26.9999 47.1H26.8999H26.6999L26.3999 46.8001H26.2999V46.7V46.6L26.3999 46.4001V46.3001V46.1L26.2999 46L26.0999 45.8001L25.9999 45.6L25.8999 45.5L25.7999 45.4001H25.5999L25.3999 45.3001H25.2999V45.2L25.0999 45V44.9001L24.8999 44.8001L24.6999 44.7H24.5999L24.2999 44.8001L24.1999 44.9001H23.9999H23.8999H23.7999L23.5999 44.7L23.4999 44.5L23.3999 44.4001L23.2999 44.3001L23.1999 44.2L22.9999 44L22.8999 43.9001H22.7999H22.6999L22.5999 44V44.1L22.6999 44.2V44.3001L22.4999 44.4001H22.2999H22.1999H22.0999L21.7999 44.1L21.6999 44V43.9001V43.8001L21.5999 43.6L21.4999 43.5V43.4001L21.2999 43.3001H21.1999H20.9999L20.7999 43.2V43.1L20.6999 43L20.4999 42.9001H20.5999V42.7V42.6V42.5L20.6999 42.3001V42.2V42.1L20.5999 42H20.4999L20.2999 41.9001L20.0999 41.8001L19.9999 41.6L19.7999 41.4001L19.6999 41.3001L19.7999 41.2V41.1V40.9001V40.8001V40.7V40.6H19.8999V40.5V40.4001V40.2L20.0999 40L20.2999 39.8001L20.3999 39.3001H20.2999V39.2V39V38.9001V38.8001V38.7V38.6L20.0999 38.4001L19.8999 38.2L19.7999 38.1L19.6999 37.9001L19.5999 37.7V37.6L19.4999 37.4001L19.5999 37.3001L19.6999 37.2L19.7999 37.1V37L19.8999 36.8001L19.9999 36.6L20.0999 36.5L20.1999 36.4001H20.4999V36.3001L20.3999 35.9001L20.2999 35.7V35.5L20.1999 35.4001V35.2L20.0999 35.1L19.9999 35L20.0999 34.9001L20.2999 34.8001H20.4999L20.6999 34.6L20.8999 34.5L20.9999 34.4001L21.0999 34.3001L21.2999 34.2L21.3999 34.1L21.4999 34V33.9001L21.5999 33.7L21.6999 33.6L21.8999 33.5L21.9999 33.4001L22.0999 33.2V33.1H22.1999L22.2999 33L22.4999 32.9001V32.8001V32.6V32.4001L22.3999 32.3001H22.2999H22.0999H21.8999H21.6999H21.5999L21.4999 32.2L21.2999 32.1L21.1999 32.2H20.9999L20.7999 32.3001L20.6999 32.4001H20.4999L20.3999 32.3001L20.2999 32.2L20.0999 32L19.9999 31.9001H19.8999H19.7999H19.6999H19.4999L19.3999 31.8001L19.2999 31.7L19.0999 31.8001H18.9999H18.8999H18.7999H18.5999H18.4999V31.7V31.5L18.3999 31.4001H17.9999L17.7999 31.5H17.6999H17.5999H17.4999L17.3999 31.4001H17.1999H17.0999H16.8999H16.6999H16.5999H16.4999L16.3999 31.5V31.6V31.7L16.2999 31.8001V31.9001L16.0999 32.1L15.9999 32.2L15.7999 32.4001L15.5999 32.6H15.4999H15.3999H15.1999H14.9999H14.6999L14.5999 32.5H14.3999L14.1999 32.3001L13.9999 32.2H13.8999H13.7999H13.5999L13.4999 32.3001H13.2999H13.1999H12.7999H12.6999L12.2999 32.4001H12.0999L11.8999 32.6H11.7999L11.4999 32.7H11.3999H11.2999L11.1999 32.6H11.0999L10.8999 32.7L10.6999 32.9001L10.5999 32.8001H10.4999L10.2999 32.7L10.1999 32.6L10.0999 32.5H9.99991L9.8999 32.4001H9.79991H9.59991L9.3999 32.3001L9.19991 32.2H8.99991L8.79991 32.1H8.69991H8.59991L8.49991 32L8.3999 31.9001L8.29991 31.8001L8.09991 31.7H7.99991L7.8999 31.6V31.5H7.79991L7.69991 31.4001H7.59991L7.49991 31.5H7.3999V31.6H7.29991H7.19991H7.09991H6.8999L6.59991 31.7V31.5V31.4001H6.49991L6.29991 31.3001L6.19991 31.2H6.09991H5.99991H5.8999L5.79991 31.3001H5.69991L5.49991 31.1L5.29991 31.3001L5.09991 31.5L4.79991 31.8001L4.69991 31.5H4.59991H4.49991H4.3999H4.09991H3.8999H3.29991H3.19991V31.4001V31.1L3.29991 30.7V30.4001L3.19991 30.3001L2.99991 30.2L2.59991 30V29.8001V29.7L2.49991 29.6V29.5L2.09991 29.2L2.29991 29V28.9001L2.3999 28.8001V28.7V28.6L2.29991 28.4001V28.3001V28.2H2.3999L2.59991 28.1L2.99991 27.9001L3.3999 27.8001H3.79991L3.99991 28H4.09991V27.7L3.99991 27.2H4.29991H4.49991L4.59991 27.1L4.69991 26.6V26.5H4.59991L4.49991 26.4001L4.3999 26.2L4.19991 25.7L3.99991 25.6V25.5V25.4001V25.3001V25.1L3.8999 25L3.3999 24.4001L3.19991 24.1L2.69991 23.8001L2.3999 23.6V23.5L2.49991 23.4001V23.2L2.09991 22.9001L1.79991 22.6L1.49991 22.3001L0.999908 21.8001V21.3001V21.1L0.899902 20.4001V19.8001L0.999908 19.5L1.09991 19.1H1.3999L1.99991 19L2.09991 18.9001L2.3999 18.5L2.59991 18.6L2.99991 18.9001L3.19991 19.1H3.29991L3.59991 19.2L3.99991 18.7L4.29991 18.4001L4.49991 18.2L4.59991 17.7L4.79991 17.4001L4.8999 17.2L5.19991 17.1L5.49991 16.9001L5.59991 16.8001L5.79991 16.9001L5.99991 17.2L6.09991 17.7L5.8999 18V18.1V18.2V18.3001L6.09991 18.6L6.29991 18.9001L6.79991 19.2L7.59991 19.3001H8.09991H8.3999L8.69991 19.4001L9.09991 19.6L9.49991 19.8001L9.79991 19.9001H9.99991H10.0999H10.1999L10.5999 19.4001L10.6999 19.3001H10.7999H10.8999L11.1999 19.4001L11.4999 19.6H11.7999L11.9999 19.7H12.1999L12.3999 19.8001L12.6999 20.1L12.9999 20.3001H13.0999L13.2999 20.4001H13.4999H13.7999L13.9999 20.5H14.3999L14.8999 20.6H15.0999L15.4999 20.7H15.5999H15.6999L16.0999 20.5H16.2999H16.4999L16.6999 20.3001L17.0999 20.2L17.2999 20V19.8001V19.4001V19.1L17.1999 18.8001L16.6999 18.4001L16.3999 18.2L16.1999 18V17.9001L16.2999 17.8001L16.4999 17.7H16.5999L16.8999 17.8001L17.3999 17.9001L17.7999 18.1L18.0999 18.3001L18.3999 18.5H18.5999H18.9999L19.2999 18.4001L19.7999 18.1L19.9999 18.3001L20.2999 18.7L20.5999 18.8001L21.2999 19.1L21.7999 19.2V19.5L21.9999 19.8001L22.0999 20.1L22.1999 20.3001L22.4999 20.8001L22.6999 20.9001L23.0999 21.3001H23.2999L24.2999 20.5L24.6999 20.1L24.7999 19.5L25.1999 19.1H25.4999L26.2999 18.6L26.6999 18.4001L26.8999 17.8001L26.6999 17.3001V17.1V16.9001L26.7999 16.7V16.5V16.4001L26.6999 16.1V15.9001L26.4999 15.4001L26.3999 15.3001V15.2V15.1V15V14.9001H26.2999V14.8001L26.1999 14.7V14.6V14.2V14.1L26.0999 13.9001V13.7L25.9999 13.6L25.8999 13.5H25.7999L25.5999 13.2L25.3999 12.9001L24.7999 12.1L24.6999 12L24.4999 11.9001V11.8001H24.3999V11.7V11.6V11.5V11.4001V11.1V10.8001V10.7V10.6H24.4999L24.5999 10.5H24.7999L24.8999 10.4001V10.3001V10.1V10L25.1999 9.50005H25.2999H25.3999V9.40005H25.4999H25.5999L25.6999 9.30005L25.4999 8.80005L25.3999 8.60005L25.2999 8.50005L25.1999 8.30005H25.2999L25.3999 8.20005L25.4999 8.00005V7.80005L25.3999 7.40005L25.2999 7.30005H25.1999L25.0999 7.20005H24.9999L24.8999 6.90005L24.6999 6.60005L24.5999 6.50005V6.40005H24.6999H24.7999H24.9999H25.0999H25.1999L25.2999 6.30005L25.3999 6.00005L25.4999 5.80005L25.5999 5.70005L26.0999 5.30005L26.1999 5.20005H26.2999L26.5999 5.30005H26.6999L26.8999 5.50005L27.0999 5.60005L27.1999 5.70005V5.90005L27.2999 6.00005H27.3999H27.4999H27.5999L27.6999 5.90005H27.7999L27.8999 6.00005H27.9999V6.10005L28.0999 6.20005V6.30005V6.40005V6.60005V6.70005L28.1999 6.80005V6.90005H28.2999H28.3999H28.4999L28.6999 7.00005L28.7999 7.10005L28.8999 7.20005L29.1999 7.70005L29.3999 7.90005L29.4999 8.00005V8.10005L29.9999 8.40005L30.4999 8.70005L30.8999 8.90005L31.0999 9.00005L31.1999 9.10005L31.8999 9.90005L32.2999 10.2L32.3999 10.3001L32.4999 10.5L32.5999 10.6H32.6999L32.7999 10.7H32.8999L33.0999 10.8001H33.1999L33.2999 10.7L33.5999 10.3001V10.2V10.1V10L33.7999 9.70005L33.8999 9.60005H34.0999H34.1999L34.0999 9.50005L33.9999 9.40005L33.8999 9.30005V9.20005L33.9999 8.40005V8.30005L34.0999 8.20005L34.1999 8.10005V8.00005V7.90005L34.0999 7.80005V7.60005L33.9999 7.50005V7.40005H34.0999H34.2999V7.30005H34.3999V7.20005L34.1999 7.00005V6.90005V6.80005V6.70005V6.60005L34.0999 6.40005L34.1999 6.30005H34.3999V6.20005H34.4999H34.5999L34.7999 6.10005H34.8999H34.9999V6.20005V6.30005V6.40005L35.0999 6.50005H35.1999H35.5999H35.6999V6.40005L35.7999 6.30005H35.8999V6.40005V6.50005H35.9999L36.0999 6.60005H36.1999L36.0999 6.40005V6.30005L35.8999 6.10005L35.7999 5.80005V5.70005L35.6999 5.40005V5.10005V4.90005L35.7999 4.70005L35.8999 4.60005L36.0999 4.50005L36.2999 4.30005L36.1999 4.20005L35.9999 4.10005H35.8999L35.6999 4.00005H35.5999H35.4999L35.3999 4.10005L35.1999 4.20005L34.7999 4.30005H34.6999H34.5999L34.4999 4.20005L34.3999 4.10005H34.2999V4.00005L34.1999 3.70005V3.60005L34.2999 3.10005V2.90005V2.70005V2.30005V2.20005V2.10005V2.00005L34.3999 1.90005V1.80005H34.4999L34.5999 1.70005H34.6999L34.7999 1.50005L34.9999 1.10005L35.0999 0.900051H35.1999L35.2999 0.800049H35.3999Z" fill="#460B5E"/>
</svg>
